0
SECTION
2
HEADER
9
$INSUNITS
70
4
9
$ACADVER
1
AC1014
9
$HANDSEED
5
FFFF
0
ENDSEC
0
SECTION
2
TABLES
0
TABLE
2
VPORT
5
8
100
AcDbSymbolTable
0
ENDTAB
0
TABLE
2
LTYPE
5
5
100
AcDbSymbolTable
0
LTYPE
5
14
100
AcDbSymbolTableRecord
100
AcDbLinetypeTableRecord
2
BYBLOCK
70
0
0
LTYPE
5
15
100
AcDbSymbolTableRecord
100
AcDbLinetypeTableRecord
2
BYLAYER
70
0
0
LTYPE
5
16
100
AcDbSymbolTableRecord
100
AcDbLinetypeTableRecord
2
DASHED
70
0
3
Dashed __ __ __ __ __ __ __ __ __ __ __ __ __ _
72
65
73
2
40
0.75
49
0.5
74
0
49
-0.25
74
0
0
ENDTAB
0
TABLE
2
LAYER
5
2
100
AcDbSymbolTable
70
2
0
LAYER
5
50
100
AcDbSymbolTableRecord
100
AcDbLayerTableRecord
2
0
70
0
62
7
6
CONTINUOUS
0
ENDTAB
0
TABLE
2
STYLE
5
3
100
AcDbSymbolTable
70
1
0
STYLE
5
11
100
AcDbSymbolTableRecord
100
AcDbTextStyleTableRecord
2
STANDARD
70
0
0
ENDTAB
0
TABLE
2
VIEW
5
6
100
AcDbSymbolTable
70
0
0
ENDTAB
0
TABLE
2
UCS
5
7
100
AcDbSymbolTable
70
0
0
ENDTAB
0
TABLE
2
APPID
5
9
100
AcDbSymbolTable
70
2
0
APPID
5
12
100
AcDbSymbolTableRecord
100
AcDbRegAppTableRecord
2
ACAD
70
0
0
ENDTAB
0
TABLE
2
DIMSTYLE
5
A
100
AcDbSymbolTable
70
1
0
ENDTAB
0
TABLE
2
BLOCK_RECORD
5
1
100
AcDbSymbolTable
70
1
0
BLOCK_RECORD
5
1F
100
AcDbSymbolTableRecord
100
AcDbBlockTableRecord
2
*MODEL_SPACE
0
BLOCK_RECORD
5
1B
100
AcDbSymbolTableRecord
100
AcDbBlockTableRecord
2
*PAPER_SPACE
0
ENDTAB
0
ENDSEC
0
SECTION
2
BLOCKS
0
BLOCK
5
20
100
AcDbEntity
100
AcDbBlockBegin
2
*MODEL_SPACE
0
ENDBLK
5
21
100
AcDbEntity
100
AcDbBlockEnd
0
BLOCK
5
1C
100
AcDbEntity
100
AcDbBlockBegin
2
*PAPER_SPACE
0
ENDBLK
5
1D
100
AcDbEntity
100
AcDbBlockEnd
0
ENDSEC
0
SECTION
2
ENTITIES
0
LWPOLYLINE
5
100
100
AcDbEntity
8
0
100
AcDbPolyline
90
4
70
1
43
0.0
10
-23.585015890943765
20
241.91118166475579
10
-23.58501589094374
20
251.91118166475579
10
-28.585015890943719
20
251.91118166475579
10
-28.585015890943737
20
241.91118166475579
0
LWPOLYLINE
5
101
100
AcDbEntity
8
0
100
AcDbPolyline
90
4
70
1
43
0.0
10
-23.58501589094384
20
201.91118166475579
10
-23.585015890943815
20
211.91118166475579
10
-28.585015890943794
20
211.91118166475579
10
-28.585015890943811
20
201.91118166475579
0
LWPOLYLINE
5
102
100
AcDbEntity
8
0
100
AcDbPolyline
90
4
70
1
43
0.0
10
-23.585015890943755
20
231.91118166475579
10
-28.585015890943755
20
231.91118166475579
10
-28.58501589094379
20
221.91118166475579
10
-23.58501589094379
20
221.91118166475579
0
LWPOLYLINE
5
103
100
AcDbEntity
8
0
100
AcDbPolyline
90
4
70
1
43
0.0
10
-169.9687624164178
20
77.194101805953537
10
-186.63542908308443
20
77.194101805953963
10
-186.63542908308457
20
72.194101805953949
10
-169.96876241641792
20
72.19410180595338
0
LWPOLYLINE
5
104
100
AcDbEntity
8
0
100
AcDbPolyline
90
4
70
1
43
0.0
10
-281.75555241224788
20
242.5235531981015
10
-293.7555524122476
20
242.52355319810249
10
-293.75555241224799
20
237.52355319810633
10
-281.75555241224822
20
237.52355319810417
0
LWPOLYLINE
5
105
100
AcDbEntity
8
0
100
AcDbPolyline
90
4
70
1
43
0.0
10
-257.75555241224868
20
237.52355319809979
10
-257.75555241224828
20
242.52355319809942
10
-269.75555241224805
20
242.52355319810047
10
-269.75555241224845
20
237.52355319810195
0
LWPOLYLINE
5
106
100
AcDbEntity
8
0
100
AcDbPolyline
90
4
70
1
43
0.0
10
-193.91446728309788
20
342.36463832724547
10
-193.91446728309791
20
330.36463832724542
10
-188.91446728309796
20
330.36463832724542
10
-188.91446728309791
20
342.36463832724547
0
LWPOLYLINE
5
107
100
AcDbEntity
8
0
100
AcDbPolyline
90
4
70
1
43
0.0
10
-193.91446728309796
20
306.36463832724547
10
-188.91446728309796
20
306.36463832724547
10
-188.91446728309796
20
318.36463832724547
10
-193.91446728309796
20
318.36463832724547
0
LWPOLYLINE
5
108
100
AcDbEntity
8
0
100
AcDbPolyline
90
4
70
1
43
0.0
10
-188.07926616872379
20
201.33301302440302
10
-176.29415314894757
20
213.11812604417835
10
-179.82968705487997
20
216.65365995011089
10
-191.61480007465565
20
204.86854693033581
0
LWPOLYLINE
5
109
100
AcDbEntity
8
0
100
AcDbPolyline
90
4
70
1
43
0.0
10
-152.72392710939511
20
236.68835208372894
10
-156.2594610153279
20
240.22388598966188
10
-168.04457403510389
20
228.43877296988637
10
-164.50904012917132
20
224.90323906395363
0
LWPOLYLINE
5
110
100
AcDbEntity
8
0
100
AcDbPolyline
90
116
70
1
43
0.0
10
-5.9687624164110176
20
371.91118166475115
10
16.697904250255498
20
371.9111816647511
10
16.69790425025549
20
356.32294637063387
10
21.697904250246918
20
356.32294637063387
10
21.697904250255586
20
335.73471107651596
10
16.697904250255444
20
335.73471107651596
10
16.697904250255412
20
315.14647578239806
10
21.697904250248019
20
315.146475782398
10
21.697904250255604
20
294.55824048828015
10
16.697904250255373
20
294.55824048828009
10
16.697904250255331
20
273.97000519416224
10
21.69790425024912
20
273.97000519416218
10
21.697904250255618
20
253.38176990004433
10
16.697904250255302
20
253.3817699000443
10
16.697904250255252
20
232.79353460592645
10
21.697904250250222
20
232.79353460592645
10
21.697904250255633
20
212.20529931180852
10
16.697904250255196
20
212.20529931180849
10
16.697904250255174
20
191.61706401769061
10
21.697904250251288
20
191.61706401769061
10
21.697904250255643
20
171.0288287235727
10
16.697904250255124
20
171.0288287235727
10
16.6979042502551
20
150.44059342945479
10
21.697904250252389
20
150.44059342945474
10
21.697904250255657
20
129.85235813533689
10
16.697904250255053
20
129.85235813533683
10
16.697904250255021
20
109.26412284121895
10
21.69790425025349
20
109.26412284121895
10
21.697904250255672
20
88.675887547101055
10
16.697904250254982
20
88.675887547101013
10
16.697904250254943
20
68.087652252983233
10
21.697904250254592
20
68.08765225298319
10
21.697904250255682
20
47.499416958865268
10
16.697904250254911
20
47.499416958865233
10
16.697904250254872
20
31.91118166475178
10
-3.5962133968038579
20
31.911181664751883
10
-3.5962133968039156
20
26.911181664746664
10
-23.890331043862645
20
26.911181664748032
10
-23.890331043862574
20
31.911181664751744
10
-44.184448690921329
20
31.911181664751965
10
-44.184448690921414
20
26.911181664745598
10
-64.478566337980112
20
26.911181664748636
10
-64.478566337980041
20
31.911181664751886
10
-84.772683985038796
20
31.91118166475205
10
-84.772683985038839
20
26.911181664744532
10
-105.06680163209758
20
26.91118166474924
10
-105.06680163209751
20
31.911181664751957
10
-125.36091927915626
20
31.911181664752135
10
-125.36091927915632
20
26.911181664743538
10
-145.65503692621505
20
26.911181664749844
10
-145.65503692621502
20
31.911181664752029
10
-165.94915457327369
20
31.91118166475222
10
-165.9491545732738
20
26.911181664742472
10
-186.24327222033253
20
26.911181664750448
10
-186.24327222033253
20
31.911181664752135
10
-206.53738986739114
20
31.911181664752309
10
-206.53738986739128
20
26.911181664741441
10
-226.83150751444998
20
26.911181664751052
10
-226.83150751444998
20
31.911181664752206
10
-247.12562516150859
20
31.911181664752391
10
-247.12562516150876
20
26.911181664740447
10
-267.41974280856743
20
26.911181664751656
10
-267.41974280856743
20
31.911181664752277
10
-287.7138604556261
20
31.911181664752476
10
-287.71386045562622
20
26.911181664739381
10
-308.00797810268489
20
26.911181664752259
10
-308.00797810268489
20
31.911181664752348
10
-323.30209574974339
20
31.911181664752554
10
-323.30209574974333
20
52.205299311811011
10
-328.30209574974361
20
52.205299311811011
10
-328.30209574974356
20
72.49941695886946
10
-323.30209574974333
20
72.499416958869418
10
-323.30209574974333
20
92.793534605927903
10
-328.30209574974361
20
92.793534605927988
10
-328.30209574974344
20
113.0876522529864
10
-323.30209574974333
20
113.08765225298637
10
-323.30209574974327
20
133.38176990004482
10
-328.30209574974356
20
133.38176990004482
10
-328.30209574974339
20
153.67588754710334
10
-323.30209574974333
20
153.67588754710332
10
-323.30209574974322
20
173.9700051941617
10
-328.30209574974344
20
173.97000519416173
10
-328.30209574974333
20
194.26412284122023
10
-323.30209574974327
20
194.2641228412202
10
-323.30209574974322
20
214.55824048827867
10
-328.30209574974339
20
214.55824048827873
10
-328.30209574974333
20
226.91118166475331
10
-428.30209574974299
20
226.91118166475258
10
-428.30209574974322
20
376.91118166475201
10
-328.30209574974361
20
376.91118166475189
10
-300.63542908307653
20
376.91118166470687
10
-300.63542908307642
20
371.91118166475172
10
-323.30209574974305
20
371.91118166475178
10
-323.30209574974305
20
356.61706401768782
10
-328.3020957497431
20
356.61706401768788
10
-328.30209574974361
20
376.91118166475189
10
-328.30209574974396
20
476.91118166475241
10
-178.30209574974396
20
476.91118166475212
10
-178.30209574974418
20
376.91118166472387
10
-187.30209574974367
20
376.91118166472268
10
-187.30209574974353
20
371.9111816647515
10
-164.63542908307693
20
371.91118166475144
10
-164.6354290830771
20
376.91118166472575
10
-141.9687624164105
20
376.91118166472899
10
-141.96876241641041
20
371.91118166475133
10
-119.30209574974381
20
371.91118166475127
10
-119.30209574974387
20
376.91118166473211
10
-96.635429083077355
20
376.91118166473524
10
-96.635429083077298
20
371.91118166475127
10
-73.968762416410698
20
371.91118166475127
10
-73.968762416410783
20
376.91118166473842
10
-51.302095749744225
20
376.9111816647416
10
-51.302095749744147
20
371.91118166475121
10
-28.635429083077526
20
371.91118166475115
10
-28.635429083077604
20
376.91118166474473
10
-5.9687624164110549
20
376.91118166474791
0
LWPOLYLINE
5
111
100
AcDbEntity
8
0
100
AcDbPolyline
90
4
70
1
43
0.0
10
-255.30209574974344
20
376.91118166471313
10
-277.96876241640996
20
376.91118166471
10
-277.96876241640985
20
371.91118166475167
10
-255.30209574974327
20
371.91118166475167
0
LWPOLYLINE
5
112
100
AcDbEntity
8
0
100
AcDbPolyline
90
4
70
1
43
0.0
10
-232.63542908307684
20
376.91118166471631
10
-232.63542908307673
20
371.91118166475155
10
-209.96876241641016
20
371.9111816647515
10
-209.96876241641024
20
376.91118166471944
0
CIRCLE
5
113
100
AcDbEntity
8
0
100
AcDbCircle
10
-275.26908715862186
20
323.87817307788504
30
0
40
15
210
-1.5777218104420236e-30
220
-9.3409423755134682e-61
230
1
0
LWPOLYLINE
5
114
100
AcDbEntity
8
0
100
AcDbPolyline
90
4
70
1
43
0.0
10
-323.30209574974305
20
336.32294637062944
10
-328.30209574974322
20
336.32294637062944
10
-328.30209574974322
20
316.02882872357094
10
-323.30209574974305
20
316.02882872357094
0
LWPOLYLINE
5
115
100
AcDbEntity
8
0
100
AcDbPolyline
90
4
70
1
43
0.0
10
-328.30209574974322
20
295.7347110765125
10
-328.30209574974327
20
275.440593429454
10
-323.3020957497431
20
275.44059342945405
10
-323.30209574974305
20
295.7347110765125
0
LWPOLYLINE
5
116
100
AcDbEntity
8
0
100
AcDbPolyline
90
4
70
1
43
0.0
10
-323.30209574974322
20
255.14647578239558
10
-328.30209574974333
20
255.14647578239558
10
-328.30209574974333
20
234.85235813533708
10
-323.30209574974322
20
234.85235813533711
0
ENDSEC
0
SECTION
2
OBJECTS
0
DICTIONARY
5
C
100
AcDbDictionary
3
ACAD_GROUP
350
D
3
ACAD_MLINESTYLE
350
17
0
DICTIONARY
5
D
100
AcDbDictionary
0
DICTIONARY
5
1A
330
C
100
AcDbDictionary
0
DICTIONARY
5
17
100
AcDbDictionary
0
ENDSEC
0
EOF
