0
SECTION
2
HEADER
9
$INSUNITS
70
4
9
$ACADVER
1
AC1014
9
$HANDSEED
5
FFFF
0
ENDSEC
0
SECTION
2
TABLES
0
TABLE
2
VPORT
5
8
100
AcDbSymbolTable
0
ENDTAB
0
TABLE
2
LTYPE
5
5
100
AcDbSymbolTable
0
LTYPE
5
14
100
AcDbSymbolTableRecord
100
AcDbLinetypeTableRecord
2
BYBLOCK
70
0
0
LTYPE
5
15
100
AcDbSymbolTableRecord
100
AcDbLinetypeTableRecord
2
BYLAYER
70
0
0
LTYPE
5
16
100
AcDbSymbolTableRecord
100
AcDbLinetypeTableRecord
2
DASHED
70
0
3
Dashed __ __ __ __ __ __ __ __ __ __ __ __ __ _
72
65
73
2
40
0.75
49
0.5
74
0
49
-0.25
74
0
0
ENDTAB
0
TABLE
2
LAYER
5
2
100
AcDbSymbolTable
70
2
0
LAYER
5
50
100
AcDbSymbolTableRecord
100
AcDbLayerTableRecord
2
0
70
0
62
7
6
CONTINUOUS
0
ENDTAB
0
TABLE
2
STYLE
5
3
100
AcDbSymbolTable
70
1
0
STYLE
5
11
100
AcDbSymbolTableRecord
100
AcDbTextStyleTableRecord
2
STANDARD
70
0
0
ENDTAB
0
TABLE
2
VIEW
5
6
100
AcDbSymbolTable
70
0
0
ENDTAB
0
TABLE
2
UCS
5
7
100
AcDbSymbolTable
70
0
0
ENDTAB
0
TABLE
2
APPID
5
9
100
AcDbSymbolTable
70
2
0
APPID
5
12
100
AcDbSymbolTableRecord
100
AcDbRegAppTableRecord
2
ACAD
70
0
0
ENDTAB
0
TABLE
2
DIMSTYLE
5
A
100
AcDbSymbolTable
70
1
0
ENDTAB
0
TABLE
2
BLOCK_RECORD
5
1
100
AcDbSymbolTable
70
1
0
BLOCK_RECORD
5
1F
100
AcDbSymbolTableRecord
100
AcDbBlockTableRecord
2
*MODEL_SPACE
0
BLOCK_RECORD
5
1B
100
AcDbSymbolTableRecord
100
AcDbBlockTableRecord
2
*PAPER_SPACE
0
ENDTAB
0
ENDSEC
0
SECTION
2
BLOCKS
0
BLOCK
5
20
100
AcDbEntity
100
AcDbBlockBegin
2
*MODEL_SPACE
0
ENDBLK
5
21
100
AcDbEntity
100
AcDbBlockEnd
0
BLOCK
5
1C
100
AcDbEntity
100
AcDbBlockBegin
2
*PAPER_SPACE
0
ENDBLK
5
1D
100
AcDbEntity
100
AcDbBlockEnd
0
ENDSEC
0
SECTION
2
ENTITIES
0
CIRCLE
5
100
100
AcDbEntity
8
0
100
AcDbCircle
10
47.920074462887897
20
12.432417869579854
30
0
40
15
210
1.5777218104420236e-30
220
6.3108872417680944e-30
230
1
0
LWPOLYLINE
5
101
100
AcDbEntity
8
0
100
AcDbPolyline
90
84
70
1
43
0.0
10
-16.697895097938567
20
30.43241786957962
10
-16.697895097938591
20
37.432417869579623
10
3.5962225491201583
20
37.432417869579695
10
3.5962225491201543
20
42.432417869579695
10
23.890340196178855
20
42.432417869579766
10
23.890340196178904
20
37.432417869579766
10
44.184457843237624
20
37.432417869579837
10
44.184457843237617
20
42.432417869579844
10
64.478575490296322
20
42.432417869579915
10
64.478575490296379
20
37.432417869579915
10
84.772693137355077
20
37.432417869579993
10
84.772693137355105
20
42.432417869579986
10
105.06681078441378
20
42.432417869580057
10
105.06681078441386
20
37.432417869580064
10
125.36092843147256
20
37.432417869580135
10
125.36092843147257
20
42.432417869580135
10
145.65504607853126
20
42.432417869580206
10
145.65504607853129
20
37.43241786958022
10
165.94916372558998
20
37.432417869580291
10
165.94916372558995
20
42.432417869580291
10
186.24328137264871
20
42.432417869580362
10
186.24328137264877
20
37.432417869580362
10
206.53739901970744
20
37.432417869580433
10
206.53739901970744
20
42.432417869580441
10
226.83151666676619
20
42.432417869580512
10
226.83151666676619
20
37.432417869580512
10
247.12563431382492
20
37.432417869580583
10
247.12563431382489
20
42.43241786958059
10
267.41975196088367
20
42.432417869580661
10
267.41975196088367
20
37.432417869580661
10
287.7138696079424
20
37.432417869580739
10
287.7138696079424
20
42.432417869580732
10
308.00798725500113
20
42.432417869580803
10
308.00798725500113
20
37.43241786958081
10
323.30210490205968
20
37.432417869580867
10
323.3021049020598
20
26.432417869580863
10
328.30210490206002
20
26.432417869580888
10
328.30210490206008
20
15.432417869580883
10
323.30210490205985
20
15.432417869580865
10
323.30210490205985
20
4.4324178695808687
10
328.30210490206014
20
4.4324178695808882
10
328.30210490206014
20
-6.5675821304191215
10
323.30210490205991
20
-6.5675821304191384
10
323.30210490205991
20
-17.567582130419133
10
308.00798725500135
20
-17.56758213041919
10
308.00798725500141
20
-12.567582130419193
10
287.71386960794263
20
-12.567582130419266
10
287.71386960794263
20
-17.567582130419265
10
267.41975196088384
20
-17.567582130419343
10
267.41975196088384
20
-12.567582130419341
10
247.1256343138252
20
-12.567582130419417
10
247.1256343138252
20
-17.567582130419417
10
226.83151666676645
20
-17.567582130419492
10
226.83151666676639
20
-12.56758213041949
10
206.53739901970769
20
-12.567582130419567
10
206.53739901970772
20
-17.567582130419563
10
186.24328137264897
20
-17.567582130419638
10
186.24328137264897
20
-12.567582130419639
10
165.94916372559027
20
-12.567582130419714
10
165.94916372559027
20
-17.567582130419716
10
145.65504607853148
20
-17.56758213041979
10
145.65504607853148
20
-12.567582130419787
10
125.36092843147274
20
-12.567582130419863
10
125.36092843147274
20
-17.567582130419861
10
105.06681078441402
20
-17.567582130419936
10
105.066810784414
20
-12.567582130419936
10
84.772693137355304
20
-12.567582130420012
10
84.772693137355319
20
-17.567582130420011
10
64.478575490296549
20
-17.567582130420089
10
64.478575490296549
20
-12.567582130420087
10
44.184457843237809
20
-12.56758213042016
10
44.184457843237809
20
-17.567582130420163
10
23.890340196179078
20
-17.567582130420234
10
23.890340196179061
20
-12.567582130420234
10
3.5962225491203621
20
-12.567582130420309
10
3.5962225491203692
20
-17.567582130420313
10
-16.697895097938392
20
-17.567582130420377
10
-16.697895097938435
20
-5.5675821304203765
10
-21.69789509793911
20
-5.5675821304204014
10
-21.697895097939146
20
6.4324178695795968
10
-16.697895097938471
20
6.4324178695796146
10
-16.697895097938506
20
18.432417869579616
10
-21.697895097939181
20
18.432417869579599
10
-21.697895097939217
20
30.432417869579599
0
ENDSEC
0
SECTION
2
OBJECTS
0
DICTIONARY
5
C
100
AcDbDictionary
3
ACAD_GROUP
350
D
3
ACAD_MLINESTYLE
350
17
0
DICTIONARY
5
D
100
AcDbDictionary
0
DICTIONARY
5
1A
330
C
100
AcDbDictionary
0
DICTIONARY
5
17
100
AcDbDictionary
0
ENDSEC
0
EOF
