0
SECTION
2
HEADER
9
$INSUNITS
70
4
9
$ACADVER
1
AC1014
9
$HANDSEED
5
FFFF
0
ENDSEC
0
SECTION
2
TABLES
0
TABLE
2
VPORT
5
8
100
AcDbSymbolTable
0
ENDTAB
0
TABLE
2
LTYPE
5
5
100
AcDbSymbolTable
0
LTYPE
5
14
100
AcDbSymbolTableRecord
100
AcDbLinetypeTableRecord
2
BYBLOCK
70
0
0
LTYPE
5
15
100
AcDbSymbolTableRecord
100
AcDbLinetypeTableRecord
2
BYLAYER
70
0
0
LTYPE
5
16
100
AcDbSymbolTableRecord
100
AcDbLinetypeTableRecord
2
DASHED
70
0
3
Dashed __ __ __ __ __ __ __ __ __ __ __ __ __ _
72
65
73
2
40
0.75
49
0.5
74
0
49
-0.25
74
0
0
ENDTAB
0
TABLE
2
LAYER
5
2
100
AcDbSymbolTable
70
2
0
LAYER
5
50
100
AcDbSymbolTableRecord
100
AcDbLayerTableRecord
2
0
70
0
62
7
6
CONTINUOUS
0
ENDTAB
0
TABLE
2
STYLE
5
3
100
AcDbSymbolTable
70
1
0
STYLE
5
11
100
AcDbSymbolTableRecord
100
AcDbTextStyleTableRecord
2
STANDARD
70
0
0
ENDTAB
0
TABLE
2
VIEW
5
6
100
AcDbSymbolTable
70
0
0
ENDTAB
0
TABLE
2
UCS
5
7
100
AcDbSymbolTable
70
0
0
ENDTAB
0
TABLE
2
APPID
5
9
100
AcDbSymbolTable
70
2
0
APPID
5
12
100
AcDbSymbolTableRecord
100
AcDbRegAppTableRecord
2
ACAD
70
0
0
ENDTAB
0
TABLE
2
DIMSTYLE
5
A
100
AcDbSymbolTable
70
1
0
ENDTAB
0
TABLE
2
BLOCK_RECORD
5
1
100
AcDbSymbolTable
70
1
0
BLOCK_RECORD
5
1F
100
AcDbSymbolTableRecord
100
AcDbBlockTableRecord
2
*MODEL_SPACE
0
BLOCK_RECORD
5
1B
100
AcDbSymbolTableRecord
100
AcDbBlockTableRecord
2
*PAPER_SPACE
0
ENDTAB
0
ENDSEC
0
SECTION
2
BLOCKS
0
BLOCK
5
20
100
AcDbEntity
100
AcDbBlockBegin
2
*MODEL_SPACE
0
ENDBLK
5
21
100
AcDbEntity
100
AcDbBlockEnd
0
BLOCK
5
1C
100
AcDbEntity
100
AcDbBlockBegin
2
*PAPER_SPACE
0
ENDBLK
5
1D
100
AcDbEntity
100
AcDbBlockEnd
0
ENDSEC
0
SECTION
2
ENTITIES
0
CIRCLE
5
100
100
AcDbEntity
8
0
100
AcDbCircle
10
-253.30209574974489
20
12.432417572101954
30
0
40
7.5
210
1.5777218104420236e-30
220
-6.3108872417680944e-30
230
1
0
LWPOLYLINE
5
101
100
AcDbEntity
8
0
100
AcDbPolyline
90
80
70
1
43
0.0
10
16.697904250254805
20
6.4324175721009746
10
16.697904250254762
20
-5.5675824278990227
10
21.697904250254787
20
-5.5675824278990396
10
21.697904250254723
20
-17.567582427899048
10
-5.9687624164117263
20
-17.567582427898952
10
-5.9687624164117281
20
-12.567582427898946
10
-28.635429083078314
20
-12.567582427898863
10
-28.63542908307835
20
-17.567582427898866
10
-51.302095749744936
20
-17.567582427898788
10
-51.302095749744922
20
-12.567582427898786
10
-73.968762416411508
20
-12.567582427898703
10
-73.968762416411522
20
-17.567582427898703
10
-96.635429083078023
20
-17.567582427898618
10
-96.635429083078066
20
-12.567582427898614
10
-119.30209574974464
20
-12.567582427898529
10
-119.30209574974461
20
-17.567582427898532
10
-141.96876241641124
20
-17.567582427898454
10
-141.96876241641121
20
-12.567582427898454
10
-164.63542908307784
20
-12.567582427898369
10
-164.63542908307784
20
-17.567582427898369
10
-187.30209574974438
20
-17.567582427898284
10
-187.30209574974435
20
-12.56758242789828
10
-209.96876241641093
20
-12.567582427898197
10
-209.96876241641093
20
-17.567582427898202
10
-232.63542908307753
20
-17.56758242789812
10
-232.63542908307753
20
-12.56758242789812
10
-255.30209574974407
20
-12.567582427898037
10
-255.30209574974407
20
-17.567582427898035
10
-277.9687624164107
20
-17.567582427897953
10
-277.96876241641064
20
-12.567582427897948
10
-300.63542908307721
20
-12.567582427897863
10
-300.63542908307727
20
-17.567582427897868
10
-328.3020957497439
20
-17.567582427897772
10
-328.3020957497439
20
-6.5675824278977686
10
-323.30209574974378
20
-6.5675824278977935
10
-323.30209574974367
20
4.432417572102203
10
-328.30209574974384
20
4.4324175721022225
10
-328.30209574974384
20
15.432417572102228
10
-323.30209574974367
20
15.43241757210221
10
-323.30209574974361
20
26.43241757210221
10
-328.30209574974378
20
26.432417572102228
10
-328.30209574974367
20
42.432417572102224
10
-308.00797810268494
20
42.432417572102153
10
-308.007978102685
20
37.432417572102153
10
-287.71386045562627
20
37.432417572102082
10
-287.71386045562622
20
42.432417572102082
10
-267.41974280856749
20
42.432417572102004
10
-267.41974280856749
20
37.432417572102004
10
-247.12562516150871
20
37.432417572101933
10
-247.12562516150871
20
42.432417572101933
10
-226.83150751445001
20
42.432417572101855
10
-226.83150751445001
20
37.432417572101855
10
-206.53738986739125
20
37.432417572101784
10
-206.53738986739125
20
42.432417572101784
10
-186.24327222033256
20
42.432417572101713
10
-186.24327222033256
20
37.432417572101713
10
-165.94915457327377
20
37.432417572101635
10
-165.94915457327377
20
42.432417572101635
10
-145.65503692621502
20
42.432417572101564
10
-145.65503692621505
20
37.432417572101556
10
-125.36091927915632
20
37.432417572101485
10
-125.36091927915626
20
42.432417572101485
10
-105.06680163209749
20
42.432417572101414
10
-105.06680163209751
20
37.432417572101414
10
-84.772683985038782
20
37.432417572101343
10
-84.772683985038753
20
42.432417572101343
10
-64.478566337980027
20
42.432417572101258
10
-64.478566337980084
20
37.432417572101258
10
-44.184448690921343
20
37.432417572101187
10
-44.184448690921286
20
42.432417572101187
10
-23.890331043862524
20
42.432417572101109
10
-23.890331043862542
20
37.432417572101109
10
-3.5962133968037735
20
37.432417572101038
10
-3.5962133968037557
20
42.432417572101038
10
21.697904250254972
20
42.432417572100945
10
21.697904250254911
20
30.432417572100945
10
16.697904250254911
20
30.43241757210096
10
16.697904250254858
20
18.432417572100967
10
21.697904250254858
20
18.432417572100952
10
21.69790425025484
20
6.4324175721009578
0
ENDSEC
0
SECTION
2
OBJECTS
0
DICTIONARY
5
C
100
AcDbDictionary
3
ACAD_GROUP
350
D
3
ACAD_MLINESTYLE
350
17
0
DICTIONARY
5
D
100
AcDbDictionary
0
DICTIONARY
5
1A
330
C
100
AcDbDictionary
0
DICTIONARY
5
17
100
AcDbDictionary
0
ENDSEC
0
EOF
