0
SECTION
2
HEADER
9
$INSUNITS
70
4
9
$ACADVER
1
AC1014
9
$HANDSEED
5
FFFF
0
ENDSEC
0
SECTION
2
TABLES
0
TABLE
2
VPORT
5
8
100
AcDbSymbolTable
0
ENDTAB
0
TABLE
2
LTYPE
5
5
100
AcDbSymbolTable
0
LTYPE
5
14
100
AcDbSymbolTableRecord
100
AcDbLinetypeTableRecord
2
BYBLOCK
70
0
0
LTYPE
5
15
100
AcDbSymbolTableRecord
100
AcDbLinetypeTableRecord
2
BYLAYER
70
0
0
LTYPE
5
16
100
AcDbSymbolTableRecord
100
AcDbLinetypeTableRecord
2
DASHED
70
0
3
Dashed __ __ __ __ __ __ __ __ __ __ __ __ __ _
72
65
73
2
40
0.75
49
0.5
74
0
49
-0.25
74
0
0
ENDTAB
0
TABLE
2
LAYER
5
2
100
AcDbSymbolTable
70
2
0
LAYER
5
50
100
AcDbSymbolTableRecord
100
AcDbLayerTableRecord
2
0
70
0
62
7
6
CONTINUOUS
0
ENDTAB
0
TABLE
2
STYLE
5
3
100
AcDbSymbolTable
70
1
0
STYLE
5
11
100
AcDbSymbolTableRecord
100
AcDbTextStyleTableRecord
2
STANDARD
70
0
0
ENDTAB
0
TABLE
2
VIEW
5
6
100
AcDbSymbolTable
70
0
0
ENDTAB
0
TABLE
2
UCS
5
7
100
AcDbSymbolTable
70
0
0
ENDTAB
0
TABLE
2
APPID
5
9
100
AcDbSymbolTable
70
2
0
APPID
5
12
100
AcDbSymbolTableRecord
100
AcDbRegAppTableRecord
2
ACAD
70
0
0
ENDTAB
0
TABLE
2
DIMSTYLE
5
A
100
AcDbSymbolTable
70
1
0
ENDTAB
0
TABLE
2
BLOCK_RECORD
5
1
100
AcDbSymbolTable
70
1
0
BLOCK_RECORD
5
1F
100
AcDbSymbolTableRecord
100
AcDbBlockTableRecord
2
*MODEL_SPACE
0
BLOCK_RECORD
5
1B
100
AcDbSymbolTableRecord
100
AcDbBlockTableRecord
2
*PAPER_SPACE
0
ENDTAB
0
ENDSEC
0
SECTION
2
BLOCKS
0
BLOCK
5
20
100
AcDbEntity
100
AcDbBlockBegin
2
*MODEL_SPACE
0
ENDBLK
5
21
100
AcDbEntity
100
AcDbBlockEnd
0
BLOCK
5
1C
100
AcDbEntity
100
AcDbBlockBegin
2
*PAPER_SPACE
0
ENDBLK
5
1D
100
AcDbEntity
100
AcDbBlockEnd
0
ENDSEC
0
SECTION
2
ENTITIES
0
CIRCLE
5
100
100
AcDbEntity
8
0
100
AcDbCircle
10
301.91117736532129
20
18.010251182591297
30
0
40
12.5
210
-1.5777218104420236e-30
220
-8.1072657863281582e-52
230
1
0
CIRCLE
5
101
100
AcDbEntity
8
0
100
AcDbCircle
10
301.91117736532067
20
-2.790817129605573
30
0
40
5
210
-1.5777218104420236e-30
220
-8.1072657863281582e-52
230
1
0
LWPOLYLINE
5
102
100
AcDbEntity
8
0
100
AcDbPolyline
90
84
70
1
43
0.0
10
31.911177365320832
20
-6.5675821304216608
10
31.911177365321176
20
4.4324178695783356
10
26.911177365316767
20
4.432417869578491
10
26.911177365317123
20
15.432417869578497
10
31.911177365321528
20
15.432417869578339
10
31.911177365321883
20
26.432417869578337
10
26.911177365317478
20
26.432417869578497
10
26.911177365317815
20
37.432417869578501
10
47.499412659435727
20
37.432417869577847
10
47.499412659435833
20
42.432417869577854
10
68.087647953553656
20
42.432417869577193
10
68.0876479535535
20
37.432417869577193
10
88.675883247671393
20
37.432417869576547
10
88.67588324767155
20
42.432417869576547
10
109.2641185417894
20
42.4324178695759
10
109.26411854178926
20
37.432417869575893
10
129.85235383590717
20
37.432417869575247
10
129.85235383590734
20
42.432417869575247
10
150.44058913002519
20
42.432417869574593
10
150.44058913002505
20
37.432417869574593
10
171.02882442414287
20
37.432417869573946
10
171.02882442414301
20
42.432417869573946
10
191.61705971826083
20
42.432417869573285
10
191.61705971826075
20
37.432417869573285
10
212.20529501237863
20
37.432417869572639
10
212.2052950123788
20
42.432417869572639
10
232.79353030649662
20
42.432417869571992
10
232.79353030649648
20
37.432417869571992
10
253.38176560061439
20
37.432417869571339
10
253.38176560061453
20
42.432417869571339
10
273.97000089473244
20
42.432417869570685
10
273.97000089473227
20
37.432417869570685
10
294.55823618885012
20
37.432417869570031
10
294.55823618885023
20
42.432417869570038
10
315.14647148296814
20
42.432417869569377
10
315.14647148296797
20
37.432417869569377
10
335.73470677708588
20
37.432417869568731
10
335.73470677708605
20
42.432417869568731
10
356.32294207120395
20
42.432417869568084
10
356.32294207120367
20
37.432417869568077
10
371.91117736532163
20
37.432417869567587
10
371.91117736532129
20
26.432417869567587
10
376.91117736527315
20
26.432417869567431
10
376.91117736527292
20
15.432417869567423
10
371.9111773653209
20
15.43241786956758
10
371.9111773653205
20
4.4324178695675869
10
376.91117736527247
20
4.4324178695674279
10
376.91117736527218
20
-6.5675821304325774
10
371.91117736532021
20
-6.5675821304324167
10
371.91117736531987
20
-17.567582130432413
10
356.61705971825597
20
-17.567582130431926
10
356.61705971825609
20
-12.567582130431925
10
336.3229420711977
20
-12.567582130431283
10
336.32294207119753
20
-17.56758213043129
10
316.02882442413903
20
-17.567582130430651
10
316.0288244241392
20
-12.567582130430651
10
295.73470677708076
20
-12.567582130430006
10
295.73470677708053
20
-17.567582130430004
10
275.44058913002215
20
-17.567582130429365
10
275.44058913002226
20
-12.567582130429358
10
255.14647148296379
20
-12.567582130428717
10
255.14647148296359
20
-17.567582130428722
10
234.85235383590518
20
-17.567582130428082
10
234.85235383590535
20
-12.567582130428082
10
214.55823618884693
20
-12.567582130427439
10
214.55823618884676
20
-17.567582130427439
10
194.26411854178826
20
-17.567582130426796
10
194.26411854178843
20
-12.567582130426789
10
173.97000089472999
20
-12.567582130426146
10
173.97000089472979
20
-17.567582130426157
10
153.67588324767138
20
-17.567582130425514
10
153.67588324767152
20
-12.567582130425512
10
133.38176560061308
20
-12.567582130424872
10
133.38176560061294
20
-17.567582130424874
10
113.08764795355441
20
-17.567582130424228
10
113.08764795355461
20
-12.567582130424222
10
92.793530306496166
20
-12.567582130423581
10
92.793530306495995
20
-17.567582130423588
10
72.49941265943751
20
-17.567582130422945
10
72.499412659437667
20
-12.567582130422945
10
52.20529501237926
20
-12.567582130422306
10
52.205295012379096
20
-17.567582130422306
10
26.911177365316078
20
-17.567582130421499
10
26.911177365316412
20
-6.5675821304215001
0
ENDSEC
0
SECTION
2
OBJECTS
0
DICTIONARY
5
C
100
AcDbDictionary
3
ACAD_GROUP
350
D
3
ACAD_MLINESTYLE
350
17
0
DICTIONARY
5
D
100
AcDbDictionary
0
DICTIONARY
5
1A
330
C
100
AcDbDictionary
0
DICTIONARY
5
17
100
AcDbDictionary
0
ENDSEC
0
EOF
