0
SECTION
2
HEADER
9
$INSUNITS
70
4
9
$ACADVER
1
AC1014
9
$HANDSEED
5
FFFF
0
ENDSEC
0
SECTION
2
TABLES
0
TABLE
2
VPORT
5
8
100
AcDbSymbolTable
0
ENDTAB
0
TABLE
2
LTYPE
5
5
100
AcDbSymbolTable
0
LTYPE
5
14
100
AcDbSymbolTableRecord
100
AcDbLinetypeTableRecord
2
BYBLOCK
70
0
0
LTYPE
5
15
100
AcDbSymbolTableRecord
100
AcDbLinetypeTableRecord
2
BYLAYER
70
0
0
LTYPE
5
16
100
AcDbSymbolTableRecord
100
AcDbLinetypeTableRecord
2
DASHED
70
0
3
Dashed __ __ __ __ __ __ __ __ __ __ __ __ __ _
72
65
73
2
40
0.75
49
0.5
74
0
49
-0.25
74
0
0
ENDTAB
0
TABLE
2
LAYER
5
2
100
AcDbSymbolTable
70
2
0
LAYER
5
50
100
AcDbSymbolTableRecord
100
AcDbLayerTableRecord
2
0
70
0
62
7
6
CONTINUOUS
0
ENDTAB
0
TABLE
2
STYLE
5
3
100
AcDbSymbolTable
70
1
0
STYLE
5
11
100
AcDbSymbolTableRecord
100
AcDbTextStyleTableRecord
2
STANDARD
70
0
0
ENDTAB
0
TABLE
2
VIEW
5
6
100
AcDbSymbolTable
70
0
0
ENDTAB
0
TABLE
2
UCS
5
7
100
AcDbSymbolTable
70
0
0
ENDTAB
0
TABLE
2
APPID
5
9
100
AcDbSymbolTable
70
2
0
APPID
5
12
100
AcDbSymbolTableRecord
100
AcDbRegAppTableRecord
2
ACAD
70
0
0
ENDTAB
0
TABLE
2
DIMSTYLE
5
A
100
AcDbSymbolTable
70
1
0
ENDTAB
0
TABLE
2
BLOCK_RECORD
5
1
100
AcDbSymbolTable
70
1
0
BLOCK_RECORD
5
1F
100
AcDbSymbolTableRecord
100
AcDbBlockTableRecord
2
*MODEL_SPACE
0
BLOCK_RECORD
5
1B
100
AcDbSymbolTableRecord
100
AcDbBlockTableRecord
2
*PAPER_SPACE
0
ENDTAB
0
ENDSEC
0
SECTION
2
BLOCKS
0
BLOCK
5
20
100
AcDbEntity
100
AcDbBlockBegin
2
*MODEL_SPACE
0
ENDBLK
5
21
100
AcDbEntity
100
AcDbBlockEnd
0
BLOCK
5
1C
100
AcDbEntity
100
AcDbBlockBegin
2
*PAPER_SPACE
0
ENDBLK
5
1D
100
AcDbEntity
100
AcDbBlockEnd
0
ENDSEC
0
SECTION
2
ENTITIES
0
CIRCLE
5
100
100
AcDbEntity
8
0
100
AcDbCircle
10
-119.55823618885762
20
-1.7138227759756006
30
4.4408920985006262e-15
40
5
210
-1.5777218104420236e-30
220
8.1072657863281582e-52
230
1
0
CIRCLE
5
101
100
AcDbEntity
8
0
100
AcDbCircle
10
-165.32291412353928
20
12.432417869574461
30
0
40
15
210
-1.5777218104420236e-30
220
8.1072657863281582e-52
230
1
0
CIRCLE
5
102
100
AcDbEntity
8
0
100
AcDbCircle
10
-59.558236188858551
20
28.286177224026304
30
4.4408920985006262e-15
40
5
210
-1.5777218104420236e-30
220
8.1072657863281582e-52
230
1
0
CIRCLE
5
103
100
AcDbEntity
8
0
100
AcDbCircle
10
-140.32291412353928
20
12.432417869575252
30
0
40
5
210
-1.5777218104420236e-30
220
8.1072657863281582e-52
230
1
0
CIRCLE
5
104
100
AcDbEntity
8
0
100
AcDbCircle
10
-119.55823618885852
20
28.28617722402441
30
4.4408920985006262e-15
40
5
210
-1.5777218104420236e-30
220
8.1072657863281582e-52
230
1
0
CIRCLE
5
105
100
AcDbEntity
8
0
100
AcDbCircle
10
-59.558236188857556
20
-1.7138227759736999
30
4.4408920985006262e-15
40
5
210
-1.5777218104420236e-30
220
8.1072657863281582e-52
230
1
0
CIRCLE
5
106
100
AcDbEntity
8
0
100
AcDbCircle
10
-305.32291412353067
20
12.432417869570035
30
0
40
15
210
-1.5777218104420236e-30
220
8.1072657863281582e-52
230
1
0
LWPOLYLINE
5
107
100
AcDbEntity
8
0
100
AcDbPolyline
90
84
70
1
43
0.0
10
-371.91117736532317
20
30.432417869567921
10
-371.91117736532357
20
42.432417869567928
10
-356.3229420712064
20
42.432417869568411
10
-356.32294207120606
20
37.432417869568411
10
-335.73470677708826
20
37.432417869569072
10
-335.73470677708838
20
42.432417869569065
10
-315.14647148297053
20
42.432417869569711
10
-315.14647148297036
20
37.432417869569719
10
-294.55823618885245
20
37.432417869570372
10
-294.55823618885262
20
42.432417869570365
10
-273.97000089473465
20
42.432417869571012
10
-273.97000089473454
20
37.432417869571012
10
-253.38176560061663
20
37.43241786957168
10
-253.38176560061675
20
42.432417869571672
10
-232.79353030649884
20
42.432417869572319
10
-232.7935303064987
20
37.432417869572319
10
-212.20529501238079
20
37.43241786957298
10
-212.20529501238093
20
42.432417869572973
10
-191.61705971826302
20
42.432417869573619
10
-191.61705971826285
20
37.432417869573626
10
-171.02882442414494
20
37.43241786957428
10
-171.02882442414509
20
42.432417869574273
10
-150.44058913002718
20
42.43241786957492
10
-150.44058913002704
20
37.43241786957492
10
-129.85235383590913
20
37.43241786957558
10
-129.8523538359093
20
42.43241786957558
10
-109.26411854179133
20
42.432417869576227
10
-109.26411854179116
20
37.432417869576227
10
-88.675883247673283
20
37.432417869576888
10
-88.675883247673397
20
42.432417869576881
10
-68.087647953555546
20
42.432417869577527
10
-68.087647953555347
20
37.432417869577534
10
-47.499412659437432
20
37.432417869578188
10
-47.499412659437539
20
42.432417869578181
10
-26.911177365319681
20
42.432417869578828
10
-26.91117736531929
20
30.432417869578838
10
-31.911177365323837
20
30.432417869578682
10
-31.911177365323482
20
18.432417869578682
10
-26.911177365318935
20
18.432417869578838
10
-26.911177365318544
20
6.4324178695788445
10
-31.911177365323091
20
6.4324178695786882
10
-31.911177365322708
20
-5.5675821304213091
10
-26.911177365318153
20
-5.5675821304211484
10
-26.911177365317783
20
-17.567582130421169
10
-47.499412659435798
20
-17.567582130421815
10
-47.499412659435968
20
-12.567582130421812
10
-68.087647953553898
20
-12.567582130422467
10
-68.087647953553699
20
-17.567582130422466
10
-88.675883247671663
20
-17.567582130423119
10
-88.67588324767182
20
-12.567582130423114
10
-109.26411854178968
20
-12.567582130423771
10
-109.26411854178954
20
-17.567582130423766
10
-129.85235383590742
20
-17.56758213042442
10
-129.85235383590754
20
-12.56758213042442
10
-150.44058913002547
20
-12.567582130425073
10
-150.4405891300253
20
-17.567582130425066
10
-171.02882442414327
20
-17.567582130425723
10
-171.02882442414344
20
-12.56758213042572
10
-191.61705971826137
20
-12.567582130426375
10
-191.61705971826115
20
-17.567582130426374
10
-212.20529501237905
20
-17.567582130427027
10
-212.20529501237922
20
-12.567582130427022
10
-232.79353030649716
20
-12.567582130427677
10
-232.79353030649696
20
-17.567582130427674
10
-253.38176560061487
20
-17.567582130428328
10
-253.38176560061504
20
-12.567582130428328
10
-273.97000089473295
20
-12.567582130428981
10
-273.97000089473278
20
-17.567582130428974
10
-294.55823618885069
20
-17.567582130429631
10
-294.55823618885091
20
-12.567582130429628
10
-315.14647148296882
20
-12.567582130430281
10
-315.14647148296865
20
-17.567582130430278
10
-335.73470677708656
20
-17.567582130430932
10
-335.73470677708661
20
-12.56758213043093
10
-356.32294207120469
20
-12.567582130431585
10
-356.32294207120435
20
-17.567582130431585
10
-371.91117736532163
20
-17.567582130432076
10
-371.91117736532203
20
-5.5675821304320738
10
-376.91117736532198
20
-5.5675821304322346
10
-376.91117736532243
20
6.4324178695677672
10
-371.91117736532243
20
6.4324178695679262
10
-371.91117736532277
20
18.432417869567928
10
-376.91117736532277
20
18.432417869567772
10
-376.91117736532311
20
30.432417869567772
0
ENDSEC
0
SECTION
2
OBJECTS
0
DICTIONARY
5
C
100
AcDbDictionary
3
ACAD_GROUP
350
D
3
ACAD_MLINESTYLE
350
17
0
DICTIONARY
5
D
100
AcDbDictionary
0
DICTIONARY
5
1A
330
C
100
AcDbDictionary
0
DICTIONARY
5
17
100
AcDbDictionary
0
ENDSEC
0
EOF
