0
SECTION
2
HEADER
9
$INSUNITS
70
4
9
$ACADVER
1
AC1014
9
$HANDSEED
5
FFFF
0
ENDSEC
0
SECTION
2
TABLES
0
TABLE
2
VPORT
5
8
100
AcDbSymbolTable
0
ENDTAB
0
TABLE
2
LTYPE
5
5
100
AcDbSymbolTable
0
LTYPE
5
14
100
AcDbSymbolTableRecord
100
AcDbLinetypeTableRecord
2
BYBLOCK
70
0
0
LTYPE
5
15
100
AcDbSymbolTableRecord
100
AcDbLinetypeTableRecord
2
BYLAYER
70
0
0
LTYPE
5
16
100
AcDbSymbolTableRecord
100
AcDbLinetypeTableRecord
2
DASHED
70
0
3
Dashed __ __ __ __ __ __ __ __ __ __ __ __ __ _
72
65
73
2
40
0.75
49
0.5
74
0
49
-0.25
74
0
0
ENDTAB
0
TABLE
2
LAYER
5
2
100
AcDbSymbolTable
70
2
0
LAYER
5
50
100
AcDbSymbolTableRecord
100
AcDbLayerTableRecord
2
0
70
0
62
7
6
CONTINUOUS
0
ENDTAB
0
TABLE
2
STYLE
5
3
100
AcDbSymbolTable
70
1
0
STYLE
5
11
100
AcDbSymbolTableRecord
100
AcDbTextStyleTableRecord
2
STANDARD
70
0
0
ENDTAB
0
TABLE
2
VIEW
5
6
100
AcDbSymbolTable
70
0
0
ENDTAB
0
TABLE
2
UCS
5
7
100
AcDbSymbolTable
70
0
0
ENDTAB
0
TABLE
2
APPID
5
9
100
AcDbSymbolTable
70
2
0
APPID
5
12
100
AcDbSymbolTableRecord
100
AcDbRegAppTableRecord
2
ACAD
70
0
0
ENDTAB
0
TABLE
2
DIMSTYLE
5
A
100
AcDbSymbolTable
70
1
0
ENDTAB
0
TABLE
2
BLOCK_RECORD
5
1
100
AcDbSymbolTable
70
1
0
BLOCK_RECORD
5
1F
100
AcDbSymbolTableRecord
100
AcDbBlockTableRecord
2
*MODEL_SPACE
0
BLOCK_RECORD
5
1B
100
AcDbSymbolTableRecord
100
AcDbBlockTableRecord
2
*PAPER_SPACE
0
ENDTAB
0
ENDSEC
0
SECTION
2
BLOCKS
0
BLOCK
5
20
100
AcDbEntity
100
AcDbBlockBegin
2
*MODEL_SPACE
0
ENDBLK
5
21
100
AcDbEntity
100
AcDbBlockEnd
0
BLOCK
5
1C
100
AcDbEntity
100
AcDbBlockBegin
2
*PAPER_SPACE
0
ENDBLK
5
1D
100
AcDbEntity
100
AcDbBlockEnd
0
ENDSEC
0
SECTION
2
ENTITIES
0
LWPOLYLINE
5
100
100
AcDbEntity
8
0
100
AcDbPolyline
90
4
70
1
43
0.0
10
193.91447643541431
20
306.36463402781646
10
193.91447643541429
20
318.36463402781641
10
188.91447643541429
20
318.36463402781641
10
188.91447643541431
20
306.36463402781646
0
LWPOLYLINE
5
101
100
AcDbEntity
8
0
100
AcDbPolyline
90
4
70
1
43
0.0
10
193.91447643541426
20
342.36463402781646
10
188.91447643541426
20
342.36463402781635
10
188.91447643541426
20
330.36463402781635
10
193.91447643541426
20
330.36463402781641
0
LWPOLYLINE
5
102
100
AcDbEntity
8
0
100
AcDbPolyline
90
4
70
1
43
0.0
10
28.585025043260146
20
241.91117736532675
10
28.585025043260121
20
251.91117736532675
10
23.585025043260114
20
251.91117736532675
10
23.585025043260131
20
241.91117736532675
0
LWPOLYLINE
5
103
100
AcDbEntity
8
0
100
AcDbPolyline
90
4
70
1
43
0.0
10
28.58502504326022
20
201.91117736532675
10
28.585025043260195
20
211.91117736532675
10
23.585025043260188
20
211.91117736532675
10
23.585025043260206
20
201.91117736532675
0
LWPOLYLINE
5
104
100
AcDbEntity
8
0
100
AcDbPolyline
90
4
70
1
43
0.0
10
28.585025043260135
20
231.91117736532675
10
23.585025043260135
20
231.91117736532672
10
23.58502504326017
20
221.91117736532672
10
28.58502504326017
20
221.91117736532675
0
LWPOLYLINE
5
105
100
AcDbEntity
8
0
100
AcDbPolyline
90
4
70
1
43
0.0
10
193.30210490206753
20
72.19409750652504
10
203.30210490206764
20
72.194097506525395
10
203.30210490206741
20
77.194097506525338
10
193.30210490206738
20
77.194097506525068
0
LWPOLYLINE
5
106
100
AcDbEntity
8
0
100
AcDbPolyline
90
4
70
1
43
0.0
10
153.30210490206747
20
72.194097506523661
10
163.30210490206747
20
72.194097506524017
10
163.30210490206736
20
77.194097506524287
10
153.30210490206753
20
77.194097506524031
0
LWPOLYLINE
5
107
100
AcDbEntity
8
0
100
AcDbPolyline
90
4
70
1
43
0.0
10
183.30210490206753
20
72.19409750652467
10
183.30210490206736
20
77.194097506524813
10
173.30210490206736
20
77.194097506524599
10
173.30210490206753
20
72.194097506524315
0
LWPOLYLINE
5
108
100
AcDbEntity
8
0
100
AcDbPolyline
90
4
70
1
43
0.0
10
293.7555615645648
20
237.52354889867732
10
305.75556156456395
20
237.52354889867948
10
305.75556156456372
20
242.52354889867448
10
293.75556156456395
20
242.52354889867345
0
LWPOLYLINE
5
109
100
AcDbEntity
8
0
100
AcDbPolyline
90
4
70
1
43
0.0
10
245.75556156456577
20
237.52354889866862
10
257.75556156456554
20
237.52354889867078
10
257.75556156456469
20
242.52354889867041
10
245.75556156456486
20
242.52354889866945
0
LWPOLYLINE
5
110
100
AcDbEntity
8
0
100
AcDbPolyline
90
4
70
1
43
0.0
10
281.75556156456514
20
237.52354889867516
10
281.75556156456418
20
242.52354889867246
10
269.7555615645644
20
242.52354889867144
10
269.75556156456537
20
237.52354889867294
0
LWPOLYLINE
5
111
100
AcDbEntity
8
0
100
AcDbPolyline
90
4
70
1
43
0.0
10
164.50904928148771
20
224.9032347645246
10
176.29416230126395
20
213.11812174474932
10
179.82969620719629
20
216.65365565068183
10
168.04458318742024
20
228.43876867045734
0
LWPOLYLINE
5
112
100
AcDbEntity
8
0
100
AcDbPolyline
90
132
70
1
43
0.0
10
308.00798725500073
20
371.9111773653226
10
328.30210490205951
20
371.9111773653226
10
328.30210490205957
20
356.32294207120481
10
323.30210490205934
20
356.32294207120475
10
323.30210490205945
20
335.73470677708701
10
328.30210490205957
20
335.7347067770869
10
328.30210490205963
20
315.1464714829691
10
323.30210490205945
20
315.14647148296905
10
323.30210490205951
20
294.55823618885125
10
328.30210490205963
20
294.5582361888512
10
328.30210490205968
20
273.9700008947334
10
323.30210490205945
20
273.97000089473335
10
323.30210490205957
20
253.38176560061549
10
328.30210490205963
20
253.38176560061549
10
328.3021049020598
20
232.79353030649759
10
323.30210490205951
20
232.79353030649759
10
323.30210490205957
20
212.20529501237974
10
328.30210490205968
20
212.20529501237968
10
328.30210490205985
20
191.61705971826188
10
323.30210490205957
20
191.61705971826188
10
323.30210490205963
20
171.02882442414398
10
328.3021049020598
20
171.02882442414398
10
328.30210490205985
20
150.44058913002615
10
323.30210490205963
20
150.44058913002615
10
323.30210490205968
20
129.85235383590827
10
328.30210490205985
20
129.85235383590827
10
328.30210490205991
20
109.2641185417904
10
323.30210490205963
20
109.2641185417904
10
323.30210490205968
20
88.675883247672544
10
328.30210490205991
20
88.675883247672573
10
328.30210490206002
20
68.087647953554651
10
323.30210490205968
20
68.087647953554679
10
323.3021049020598
20
47.499412659436828
10
328.30210490206002
20
47.499412659436864
10
328.30210490206008
20
26.911177365323482
10
308.00798725500124
20
26.911177365309861
10
308.00798725500124
20
31.911177365323375
10
287.71386960794251
20
31.911177365323308
10
287.71386960794251
20
26.911177365310408
10
267.41975196088379
20
26.911177365310898
10
267.41975196088379
20
31.911177365323304
10
247.12563431382506
20
31.911177365323226
10
247.12563431382506
20
26.911177365311403
10
226.83151666676633
20
26.911177365311932
10
226.83151666676628
20
31.911177365323233
10
206.53739901970761
20
31.911177365323134
10
206.53739901970761
20
26.911177365312469
10
186.24328137264885
20
26.911177365312966
10
186.24328137264882
20
31.911177365323162
10
165.94916372559013
20
31.911177365323052
10
165.94916372559013
20
26.911177365313499
10
145.6550460785314
20
26.911177365314
10
145.65504607853137
20
31.911177365322985
10
125.36092843147264
20
31.911177365322967
10
125.3609284314726
20
26.911177365314494
10
105.06681078441392
20
26.911177365315034
10
105.0668107844139
20
31.911177365322914
10
84.772693137355176
20
31.911177365322882
10
84.772693137355134
20
26.911177365315559
10
64.478575490296464
20
26.911177365316075
10
64.478575490296407
20
31.911177365322843
10
44.184457843237709
20
31.9111773653228
10
44.184457843237681
20
26.911177365316625
10
23.89034019617899
20
26.911177365317108
10
23.890340196178972
20
31.911177365322771
10
3.5962225491202382
20
31.911177365322715
10
3.5962225491202107
20
26.91117736531762
10
-16.697895097938513
20
26.911177365318146
10
-16.697895097938535
20
47.499412659436047
10
-21.697895097938744
20
47.499412659436032
10
-21.697895097938222
20
68.087647953554011
10
-16.697895097938567
20
68.087647953553997
10
-16.697895097938613
20
88.675883247671905
10
-21.697895097937643
20
88.675883247671891
10
-21.697895097937128
20
109.2641185417898
10
-16.697895097938638
20
109.2641185417898
10
-16.697895097938691
20
129.85235383590776
10
-21.697895097936541
20
129.85235383590773
10
-21.697895097936033
20
150.44058913002567
10
-16.697895097938709
20
150.44058913002567
10
-16.697895097938769
20
171.02882442414358
10
-21.69789509793544
20
171.02882442414355
10
-21.697895097934943
20
191.61705971826149
10
-16.697895097938815
20
191.61705971826149
10
-16.697895097938847
20
212.20529501237937
10
-21.69789509793441
20
212.20529501237934
10
-21.697895097933852
20
232.7935303064973
10
-16.697895097938886
20
232.7935303064973
10
-16.697895097938925
20
253.38176560061521
10
-21.697895097933309
20
253.38176560061521
10
-21.697895097932758
20
273.97000089473318
10
-16.697895097938957
20
273.97000089473318
10
-16.697895097939004
20
294.55823618885108
10
-21.697895097932207
20
294.55823618885108
10
-21.697895097931664
20
315.14647148296899
10
-16.697895097939028
20
315.14647148296893
10
-16.697895097939082
20
335.73470677708684
10
-21.697895097931106
20
335.73470677708684
10
-21.697895097930573
20
356.32294207120481
10
-16.697895097939121
20
356.32294207120481
10
-16.697895097939153
20
371.91117736532198
10
3.5962225491195454
20
371.91117736532203
10
3.5962225491195654
20
376.91117736531919
10
23.890340196178336
20
376.91117736531635
10
23.890340196178347
20
371.91117736532203
10
44.184457843237077
20
371.91117736532215
10
44.18445784323707
20
376.91117736531351
10
64.478575490295796
20
376.91117736531066
10
64.478575490295782
20
371.91117736532215
10
84.772693137354537
20
371.9111773653222
10
84.772693137354565
20
376.91117736530782
10
105.06681078441331
20
376.91117736530509
10
105.06681078441332
20
371.91117736532226
10
125.36092843147202
20
371.91117736532226
10
125.360928431472
20
376.91117736530214
10
145.6550460785308
20
376.91117736529941
10
145.65504607853077
20
371.91117736532226
10
165.94916372558956
20
371.91117736532237
10
165.94916372558956
20
376.91117736529657
10
186.24328137264826
20
376.91117736529372
10
186.24328137264826
20
371.91117736532243
10
206.53739901970704
20
371.91117736532243
10
206.53739901970704
20
376.91117736529088
10
226.83151666676571
20
376.9111773652881
10
226.83151666676571
20
371.91117736532249
10
247.12563431382449
20
371.91117736532249
10
247.12563431382449
20
376.91117736528525
10
267.41975196088327
20
376.91117736528241
10
267.41975196088327
20
371.91117736532254
10
287.713869607942
20
371.9111773653226
10
287.713869607942
20
376.91117736527957
10
308.00798725500073
20
376.91117736527673
0
CIRCLE
5
113
100
AcDbEntity
8
0
100
AcDbCircle
10
275.26909631093821
20
323.87816877845592
30
0
40
4.0499999999999936
210
-7.8886090522101181e-31
220
2.0069546246911271e-59
230
1
0
CIRCLE
5
114
100
AcDbEntity
8
0
100
AcDbCircle
10
128.35503066529935
20
218.27589220122476
30
0
40
5
210
-7.8886090522101181e-31
220
2.0069546246911271e-59
230
1
0
LWPOLYLINE
5
115
100
AcDbEntity
8
0
100
AcDbPolyline
90
4
70
1
43
0.0
10
221.32710490205685
20
209.41117736531868
10
215.27710490205664
20
209.41117736531865
10
215.2771049020559
20
44.411177365440579
10
221.32710490205608
20
44.411177365318935
0
LWPOLYLINE
5
116
100
AcDbEntity
8
0
100
AcDbPolyline
90
8
70
1
43
0.0
10
179.76044048603217
20
235.44058076540745
42
0.18607225870018285
10
178.30210490206082
20
232.15256962174243
10
178.30210490206076
20
231.65752409719948
42
0.3854913448314618
10
183.04845171534322
20
226.91117736532519
10
183.54349706857909
20
226.91117736532519
42
0.1860722631360324
10
186.83150829789017
20
228.36951295353452
10
222.18684735725489
20
263.7248520128245
42
0.99999999999999989
10
215.11577954539692
20
270.79591982469742
0
LWPOLYLINE
5
117
100
AcDbEntity
8
0
100
AcDbPolyline
90
4
70
1
43
0.0
10
0.4548005757754397
20
345.88761161360338
10
0.45480057577564181
20
257.93474311704483
10
156.14940922833102
20
257.9347431170462
10
156.14940922833085
20
345.88761161360395
0
CIRCLE
5
118
100
AcDbEntity
8
0
100
AcDbCircle
10
169.66681973796213
20
176.96410312856355
30
0
40
5
210
-7.8886090522101181e-31
220
2.0069546246911271e-59
230
1
0
LWPOLYLINE
5
119
100
AcDbEntity
8
0
100
AcDbPolyline
90
4
70
1
43
0.0
10
100.79754564381366
20
40.849605472155091
10
170.96073152611726
20
111.01279135445975
10
62.403718891199972
20
219.56980398938026
10
-7.759466991063908
20
149.40661810656854
0
LWPOLYLINE
5
120
100
AcDbEntity
8
0
100
AcDbPolyline
90
4
70
1
43
0.0
10
230.3021049021086
20
209.41117736543185
10
230.3021049024137
20
44.411177365431804
10
276.30210490210885
20
44.411177365431854
10
276.30210490210862
20
209.41117736543194
0
CIRCLE
5
121
100
AcDbEntity
8
0
100
AcDbCircle
10
149.01092520163061
20
197.61999766489396
30
-8.8817841970012523e-15
40
20
210
-7.8886090522101181e-31
220
2.0069546246911271e-59
230
1
0
LWPOLYLINE
5
122
100
AcDbEntity
8
0
100
AcDbPolyline
90
4
70
1
43
0.0
10
291.32710490206546
20
44.411177365318508
10
291.32710490206517
20
209.41117736531857
10
285.27710490206522
20
209.41117736531865
10
285.2771049020655
20
44.411177365318579
0
ENDSEC
0
SECTION
2
OBJECTS
0
DICTIONARY
5
C
100
AcDbDictionary
3
ACAD_GROUP
350
D
3
ACAD_MLINESTYLE
350
17
0
DICTIONARY
5
D
100
AcDbDictionary
0
DICTIONARY
5
1A
330
C
100
AcDbDictionary
0
DICTIONARY
5
17
100
AcDbDictionary
0
ENDSEC
0
EOF
