0
SECTION
2
HEADER
9
$INSUNITS
70
4
9
$ACADVER
1
AC1014
9
$HANDSEED
5
FFFF
0
ENDSEC
0
SECTION
2
TABLES
0
TABLE
2
VPORT
5
8
100
AcDbSymbolTable
0
ENDTAB
0
TABLE
2
LTYPE
5
5
100
AcDbSymbolTable
0
LTYPE
5
14
100
AcDbSymbolTableRecord
100
AcDbLinetypeTableRecord
2
BYBLOCK
70
0
0
LTYPE
5
15
100
AcDbSymbolTableRecord
100
AcDbLinetypeTableRecord
2
BYLAYER
70
0
0
LTYPE
5
16
100
AcDbSymbolTableRecord
100
AcDbLinetypeTableRecord
2
DASHED
70
0
3
Dashed __ __ __ __ __ __ __ __ __ __ __ __ __ _
72
65
73
2
40
0.75
49
0.5
74
0
49
-0.25
74
0
0
ENDTAB
0
TABLE
2
LAYER
5
2
100
AcDbSymbolTable
70
2
0
LAYER
5
50
100
AcDbSymbolTableRecord
100
AcDbLayerTableRecord
2
0
70
0
62
7
6
CONTINUOUS
0
ENDTAB
0
TABLE
2
STYLE
5
3
100
AcDbSymbolTable
70
1
0
STYLE
5
11
100
AcDbSymbolTableRecord
100
AcDbTextStyleTableRecord
2
STANDARD
70
0
0
ENDTAB
0
TABLE
2
VIEW
5
6
100
AcDbSymbolTable
70
0
0
ENDTAB
0
TABLE
2
UCS
5
7
100
AcDbSymbolTable
70
0
0
ENDTAB
0
TABLE
2
APPID
5
9
100
AcDbSymbolTable
70
2
0
APPID
5
12
100
AcDbSymbolTableRecord
100
AcDbRegAppTableRecord
2
ACAD
70
0
0
ENDTAB
0
TABLE
2
DIMSTYLE
5
A
100
AcDbSymbolTable
70
1
0
ENDTAB
0
TABLE
2
BLOCK_RECORD
5
1
100
AcDbSymbolTable
70
1
0
BLOCK_RECORD
5
1F
100
AcDbSymbolTableRecord
100
AcDbBlockTableRecord
2
*MODEL_SPACE
0
BLOCK_RECORD
5
1B
100
AcDbSymbolTableRecord
100
AcDbBlockTableRecord
2
*PAPER_SPACE
0
ENDTAB
0
ENDSEC
0
SECTION
2
BLOCKS
0
BLOCK
5
20
100
AcDbEntity
100
AcDbBlockBegin
2
*MODEL_SPACE
0
ENDBLK
5
21
100
AcDbEntity
100
AcDbBlockEnd
0
BLOCK
5
1C
100
AcDbEntity
100
AcDbBlockBegin
2
*PAPER_SPACE
0
ENDBLK
5
1D
100
AcDbEntity
100
AcDbBlockEnd
0
ENDSEC
0
SECTION
2
ENTITIES
0
CIRCLE
5
100
100
AcDbEntity
8
0
100
AcDbCircle
10
-331.99728980483451
20
335.57379799986728
30
0
40
1.5500000000000025
210
5.7786460907589316e-38
220
6.3108872417680944e-30
230
1
0
CIRCLE
5
101
100
AcDbEntity
8
0
100
AcDbCircle
10
-297.23662774171595
20
390.2361943674324
30
-3.5527136788005009e-14
40
1.5000000000000002
210
5.7786460907589316e-38
220
6.3108872417680944e-30
230
1
0
CIRCLE
5
102
100
AcDbEntity
8
0
100
AcDbCircle
10
-341.01034009665523
20
376.24871415212056
30
0
40
1.5500000000000025
210
5.7786460907589316e-38
220
6.3108872417680944e-30
230
1
0
CIRCLE
5
103
100
AcDbEntity
8
0
100
AcDbCircle
10
-240.49813813554292
20
293.29369652009314
30
0
40
1.5499999999999985
210
5.7786460907589316e-38
220
6.3108872417680944e-30
230
1
0
CIRCLE
5
104
100
AcDbEntity
8
0
100
AcDbCircle
10
-228.16474322731642
20
302.5604583172539
30
0
40
1.4999999999999996
210
5.7786460907589316e-38
220
6.3108872417680944e-30
230
1
0
CIRCLE
5
105
100
AcDbEntity
8
0
100
AcDbCircle
10
-288.00830697576254
20
332.25246450543261
30
0
40
1.5499999999999994
210
5.7786460907589316e-38
220
6.3108872417680944e-30
230
1
0
CIRCLE
5
106
100
AcDbEntity
8
0
100
AcDbCircle
10
-250.91914211252711
20
284.47309099294665
30
0
40
1.5500000000000007
210
5.7786460907589316e-38
220
6.3108872417680944e-30
230
1
0
CIRCLE
5
107
100
AcDbEntity
8
0
100
AcDbCircle
10
-293.15621684874463
20
377.8931701454469
30
0
40
8.0500000000000043
210
5.7786460907589316e-38
220
6.3108872417680944e-30
230
1
0
CIRCLE
5
108
100
AcDbEntity
8
0
100
AcDbCircle
10
-268.42652515730185
20
322.40087474467805
30
0
40
12.500000000000004
210
5.7786460907589316e-38
220
6.3108872417680944e-30
230
1
0
CIRCLE
5
109
100
AcDbEntity
8
0
100
AcDbCircle
10
-219.51557613803604
20
312.26570991943856
30
3.5527136788005009e-14
40
8.0499999999999989
210
5.7786460907589316e-38
220
6.3108872417680944e-30
230
1
0
CIRCLE
5
110
100
AcDbEntity
8
0
100
AcDbCircle
10
-258.57493539654735
20
341.98265656313879
30
-3.5527136788005009e-14
40
1.5499999999999985
210
5.7786460907589316e-38
220
6.3108872417680944e-30
230
1
0
LWPOLYLINE
5
111
100
AcDbEntity
8
0
100
AcDbPolyline
90
4
70
1
43
0.0
10
-447.83737828407857
20
312.31538162402762
10
-429.05667582578843
20
402.94853819548121
42
0.9999999925494194
10
-432.0921901793364
20
403.57754742387442
10
-450.87289263762665
20
312.94439085242084
42
0.99999999999999989
0
CIRCLE
5
112
100
AcDbEntity
8
0
100
AcDbCircle
10
-262.77671864477929
20
279.13996954673451
30
0
40
1.6000000000000005
210
5.7786460907589316e-38
220
6.3108872417680944e-30
230
1
0
CIRCLE
5
113
100
AcDbEntity
8
0
100
AcDbCircle
10
-355.87282455395354
20
374.2222502968869
30
0
40
1.5500000000000025
210
5.7786460907589316e-38
220
6.3108872417680944e-30
230
1
0
CIRCLE
5
114
100
AcDbEntity
8
0
100
AcDbCircle
10
-237.28933992817932
20
350.24869220676817
30
0
40
1.5500000000000025
210
5.7786460907589316e-38
220
6.3108872417680944e-30
230
1
0
LWPOLYLINE
5
115
100
AcDbEntity
8
0
100
AcDbPolyline
90
4
70
1
43
0.0
10
-467.42134185535639
20
316.37350567817754
10
-448.64063939706614
20
407.00666224963123
42
1.0000000074505806
10
-451.67615375061411
20
407.63567147802439
10
-470.4568562089043
20
317.00251490657087
42
0.99999999999999989
0
CIRCLE
5
116
100
AcDbEntity
8
0
100
AcDbCircle
10
-231.2314715357233
20
338.01338933787571
30
0
40
1.5500000000000025
210
5.7786460907589316e-38
220
6.3108872417680944e-30
230
1
0
CIRCLE
5
117
100
AcDbEntity
8
0
100
AcDbCircle
10
-356.43121150242536
20
301.82965258126563
30
0
40
1.549999999999994
210
5.7786460907589316e-38
220
6.3108872417680944e-30
230
1
0
CIRCLE
5
118
100
AcDbEntity
8
0
100
AcDbCircle
10
-300.44136625271472
20
278.66700180620558
30
0
40
1.4999999999999996
210
5.7786460907589316e-38
220
6.3108872417680944e-30
230
1
0
CIRCLE
5
119
100
AcDbEntity
8
0
100
AcDbCircle
10
-223.5959870310073
20
324.60873414142395
30
0
40
1.5000000000000038
210
5.7786460907589316e-38
220
6.3108872417680944e-30
230
1
0
CIRCLE
5
120
100
AcDbEntity
8
0
100
AcDbCircle
10
-280.42663886649291
20
375.25539752564606
30
3.5527136788005009e-14
40
1.5000000000000002
210
5.7786460907589316e-38
220
6.3108872417680944e-30
230
1
0
CIRCLE
5
121
100
AcDbEntity
8
0
100
AcDbCircle
10
-317.25135512793781
20
293.64779864799198
30
0
40
1.5000000000000038
210
5.7786460907589316e-38
220
6.3108872417680944e-30
230
1
0
CIRCLE
5
122
100
AcDbEntity
8
0
100
AcDbCircle
10
-369.26463393264851
20
309.59517051167074
30
0
40
1.549999999999994
210
5.7786460907589316e-38
220
6.3108872417680944e-30
230
1
0
CIRCLE
5
123
100
AcDbEntity
8
0
100
AcDbCircle
10
-278.85651986964172
20
287.22971370640443
30
0
40
1.6000000000000016
210
5.7786460907589316e-38
220
6.3108872417680944e-30
230
1
0
CIRCLE
5
124
100
AcDbEntity
8
0
100
AcDbCircle
10
-206.78599815578426
20
309.62793729963772
30
0
40
1.5000000000000038
210
5.7786460907589316e-38
220
6.3108872417680944e-30
230
1
0
CIRCLE
5
125
100
AcDbEntity
8
0
100
AcDbCircle
10
-274.86149133704549
20
275.14494101413828
30
0
40
1.6000000000000016
210
5.7786460907589316e-38
220
6.3108872417680944e-30
230
1
0
CIRCLE
5
126
100
AcDbEntity
8
0
100
AcDbCircle
10
-301.8053839380251
20
368.1879185432623
30
0
40
1.5000000000000018
210
5.7786460907589316e-38
220
6.3108872417680944e-30
230
1
0
CIRCLE
5
127
100
AcDbEntity
8
0
100
AcDbCircle
10
-386.79078701914102
20
346.92792497457702
30
0
40
1.549999999999994
210
5.7786460907589316e-38
220
6.3108872417680944e-30
230
1
0
CIRCLE
5
128
100
AcDbEntity
8
0
100
AcDbCircle
10
-321.82011132424702
20
271.59952282382181
30
0
40
1.5000000000000038
210
5.7786460907589316e-38
220
6.3108872417680944e-30
230
1
0
CIRCLE
5
129
100
AcDbEntity
8
0
100
AcDbCircle
10
-313.17094423496656
20
281.30477442600642
30
-3.5527136788005009e-14
40
8.0499999999999989
210
5.7786460907589316e-38
220
6.3108872417680944e-30
230
1
0
CIRCLE
5
130
100
AcDbEntity
8
0
100
AcDbCircle
10
-266.77174717737552
20
291.2247422390007
30
0
40
1.6000000000000005
210
5.7786460907589316e-38
220
6.3108872417680944e-30
230
1
0
CIRCLE
5
131
100
AcDbEntity
8
0
100
AcDbCircle
10
-535.59446125938985
20
400.22491185400662
30
3.5527136788005009e-14
40
1.6000000000000016
210
5.7786460907589316e-38
220
6.3108872417680944e-30
230
1
0
CIRCLE
5
132
100
AcDbEntity
8
0
100
AcDbCircle
10
-490.08639679633626
20
375.14471909504715
30
0
40
1.6000000000000016
210
5.7786460907589316e-38
220
6.3108872417680944e-30
230
1
0
CIRCLE
5
133
100
AcDbEntity
8
0
100
AcDbCircle
10
-248.84474333884123
20
312.54928498392366
30
3.5527136788005009e-14
40
1.5499999999999985
210
5.7786460907589316e-38
220
6.3108872417680944e-30
230
1
0
CIRCLE
5
134
100
AcDbEntity
8
0
100
AcDbCircle
10
-270.81661925721045
20
283.18484162656949
30
0
40
5.0999999999999996
210
5.7786460907589316e-38
220
6.3108872417680944e-30
230
1
0
CIRCLE
5
135
100
AcDbEntity
8
0
100
AcDbCircle
10
-534.56051308893257
20
348.27367557246259
30
0
40
1.6000000000000016
210
5.7786460907589316e-38
220
6.3108872417680944e-30
230
1
0
CIRCLE
5
136
100
AcDbEntity
8
0
100
AcDbCircle
10
-520.0804570482195
20
374.54776884050546
30
0
40
20.500000000000011
210
5.7786460907589316e-38
220
6.3108872417680944e-30
230
1
0
CIRCLE
5
137
100
AcDbEntity
8
0
100
AcDbCircle
10
-306.4266588971297
20
330.27513657269134
30
0
40
1.5499999999999985
210
5.7786460907589316e-38
220
6.3108872417680944e-30
230
1
0
CIRCLE
5
138
100
AcDbEntity
8
0
100
AcDbCircle
10
-278.27811491805642
20
302.81909292621748
30
0
40
1.5499999999999994
210
5.7786460907589316e-38
220
6.3108872417680944e-30
230
1
0
LWPOLYLINE
5
139
100
AcDbEntity
8
0
100
AcDbPolyline
90
8
70
1
43
0.0
10
-290.49887761031164
20
250.38135477133949
10
-438.64610272722518
20
299.263180932404
42
-0.71797584077431287
10
-484.78481665362517
20
314.4868517886452
10
-529.47080827736443
20
329.23119055477855
42
-0.99999999999999989
10
-510.69010581907446
20
419.86434712623236
10
-463.82467237973771
20
415.63770287925036
42
-0.71797584077431065
10
-415.4356639248922
20
411.27365225188203
10
-260.06294829852573
20
397.26108178268709
42
-1.0000000074505806
0
ENDSEC
0
SECTION
2
OBJECTS
0
DICTIONARY
5
C
100
AcDbDictionary
3
ACAD_GROUP
350
D
3
ACAD_MLINESTYLE
350
17
0
DICTIONARY
5
D
100
AcDbDictionary
0
DICTIONARY
5
1A
330
C
100
AcDbDictionary
0
DICTIONARY
5
17
100
AcDbDictionary
0
ENDSEC
0
EOF
