0
SECTION
2
HEADER
9
$INSUNITS
70
4
9
$ACADVER
1
AC1014
9
$HANDSEED
5
FFFF
0
ENDSEC
0
SECTION
2
TABLES
0
TABLE
2
VPORT
5
8
100
AcDbSymbolTable
0
ENDTAB
0
TABLE
2
LTYPE
5
5
100
AcDbSymbolTable
0
LTYPE
5
14
100
AcDbSymbolTableRecord
100
AcDbLinetypeTableRecord
2
BYBLOCK
70
0
0
LTYPE
5
15
100
AcDbSymbolTableRecord
100
AcDbLinetypeTableRecord
2
BYLAYER
70
0
0
LTYPE
5
16
100
AcDbSymbolTableRecord
100
AcDbLinetypeTableRecord
2
DASHED
70
0
3
Dashed __ __ __ __ __ __ __ __ __ __ __ __ __ _
72
65
73
2
40
0.75
49
0.5
74
0
49
-0.25
74
0
0
ENDTAB
0
TABLE
2
LAYER
5
2
100
AcDbSymbolTable
70
2
0
LAYER
5
50
100
AcDbSymbolTableRecord
100
AcDbLayerTableRecord
2
0
70
0
62
7
6
CONTINUOUS
0
ENDTAB
0
TABLE
2
STYLE
5
3
100
AcDbSymbolTable
70
1
0
STYLE
5
11
100
AcDbSymbolTableRecord
100
AcDbTextStyleTableRecord
2
STANDARD
70
0
0
ENDTAB
0
TABLE
2
VIEW
5
6
100
AcDbSymbolTable
70
0
0
ENDTAB
0
TABLE
2
UCS
5
7
100
AcDbSymbolTable
70
0
0
ENDTAB
0
TABLE
2
APPID
5
9
100
AcDbSymbolTable
70
2
0
APPID
5
12
100
AcDbSymbolTableRecord
100
AcDbRegAppTableRecord
2
ACAD
70
0
0
ENDTAB
0
TABLE
2
DIMSTYLE
5
A
100
AcDbSymbolTable
70
1
0
ENDTAB
0
TABLE
2
BLOCK_RECORD
5
1
100
AcDbSymbolTable
70
1
0
BLOCK_RECORD
5
1F
100
AcDbSymbolTableRecord
100
AcDbBlockTableRecord
2
*MODEL_SPACE
0
BLOCK_RECORD
5
1B
100
AcDbSymbolTableRecord
100
AcDbBlockTableRecord
2
*PAPER_SPACE
0
ENDTAB
0
ENDSEC
0
SECTION
2
BLOCKS
0
BLOCK
5
20
100
AcDbEntity
100
AcDbBlockBegin
2
*MODEL_SPACE
0
ENDBLK
5
21
100
AcDbEntity
100
AcDbBlockEnd
0
BLOCK
5
1C
100
AcDbEntity
100
AcDbBlockBegin
2
*PAPER_SPACE
0
ENDBLK
5
1D
100
AcDbEntity
100
AcDbBlockEnd
0
ENDSEC
0
SECTION
2
ENTITIES
0
CIRCLE
5
100
100
AcDbEntity
8
0
100
AcDbCircle
10
297.23662774171595
20
390.2361943674324
30
3.5527136788005009e-14
40
1.5000000000000004
210
5.7786460907589316e-38
220
-6.3108872417680944e-30
230
1
0
CIRCLE
5
101
100
AcDbEntity
8
0
100
AcDbCircle
10
223.59598703100733
20
324.60873414142389
30
0
40
1.5000000000000038
210
5.7786460907589316e-38
220
-6.3108872417680944e-30
230
1
0
CIRCLE
5
102
100
AcDbEntity
8
0
100
AcDbCircle
10
237.28933992817932
20
350.24869220676811
30
0
40
1.5500000000000025
210
5.7786460907589316e-38
220
-6.3108872417680944e-30
230
1
0
CIRCLE
5
103
100
AcDbEntity
8
0
100
AcDbCircle
10
300.44136625271477
20
278.66700180620546
30
0
40
1.4999999999999996
210
5.7786460907589316e-38
220
-6.3108872417680944e-30
230
1
0
CIRCLE
5
104
100
AcDbEntity
8
0
100
AcDbCircle
10
317.25135512793781
20
293.64779864799181
30
0
40
1.5000000000000038
210
5.7786460907589316e-38
220
-6.3108872417680944e-30
230
1
0
CIRCLE
5
105
100
AcDbEntity
8
0
100
AcDbCircle
10
293.15621684874463
20
377.89317014544685
30
0
40
8.0500000000000043
210
5.7786460907589316e-38
220
-6.3108872417680944e-30
230
1
0
CIRCLE
5
106
100
AcDbEntity
8
0
100
AcDbCircle
10
231.23147153572324
20
338.01338933787554
30
0
40
1.5500000000000025
210
5.7786460907589316e-38
220
-6.3108872417680944e-30
230
1
0
CIRCLE
5
107
100
AcDbEntity
8
0
100
AcDbCircle
10
250.91914211252717
20
284.47309099294654
30
0
40
1.5500000000000005
210
5.7786460907589316e-38
220
-6.3108872417680944e-30
230
1
0
CIRCLE
5
108
100
AcDbEntity
8
0
100
AcDbCircle
10
520.08045704821927
20
374.54776884050551
30
0
40
20.500000000000011
210
5.7786460907589316e-38
220
-6.3108872417680944e-30
230
1
0
CIRCLE
5
109
100
AcDbEntity
8
0
100
AcDbCircle
10
270.8166192572105
20
283.18484162656932
30
0
40
5.0999999999999996
210
5.7786460907589316e-38
220
-6.3108872417680944e-30
230
1
0
CIRCLE
5
110
100
AcDbEntity
8
0
100
AcDbCircle
10
313.1709442349665
20
281.3047744260063
30
3.5527136788005009e-14
40
8.0499999999999989
210
5.7786460907589316e-38
220
-6.3108872417680944e-30
230
1
0
CIRCLE
5
111
100
AcDbEntity
8
0
100
AcDbCircle
10
369.26463393264839
20
309.59517051167063
30
0
40
1.5499999999999938
210
5.7786460907589316e-38
220
-6.3108872417680944e-30
230
1
0
CIRCLE
5
112
100
AcDbEntity
8
0
100
AcDbCircle
10
301.8053839380251
20
368.18791854326213
30
0
40
1.5000000000000016
210
5.7786460907589316e-38
220
-6.3108872417680944e-30
230
1
0
CIRCLE
5
113
100
AcDbEntity
8
0
100
AcDbCircle
10
356.43121150242519
20
301.82965258126552
30
0
40
1.5499999999999938
210
5.7786460907589316e-38
220
-6.3108872417680944e-30
230
1
0
CIRCLE
5
114
100
AcDbEntity
8
0
100
AcDbCircle
10
355.87282455395331
20
374.2222502968869
30
0
40
1.5499999999999938
210
5.7786460907589316e-38
220
-6.3108872417680944e-30
230
1
0
CIRCLE
5
115
100
AcDbEntity
8
0
100
AcDbCircle
10
219.51557613803604
20
312.26570991943839
30
-3.5527136788005009e-14
40
8.0499999999999989
210
5.7786460907589316e-38
220
-6.3108872417680944e-30
230
1
0
CIRCLE
5
116
100
AcDbEntity
8
0
100
AcDbCircle
10
240.49813813554292
20
293.29369652009296
30
0
40
1.5499999999999983
210
5.7786460907589316e-38
220
-6.3108872417680944e-30
230
1
0
LWPOLYLINE
5
117
100
AcDbEntity
8
0
100
AcDbPolyline
90
4
70
1
43
0.0
10
452.6354493590415
20
313.30962201729426
10
433.85474691088012
20
403.9427785398675
42
1.0000000105367122
10
427.29411910437318
20
402.58330703060767
10
446.07482156266343
20
311.95015045915392
42
0.99999999999999989
0
CIRCLE
5
118
100
AcDbEntity
8
0
100
AcDbCircle
10
490.08639679633609
20
375.14471909504726
30
0
40
1.6000000000000016
210
5.7786460907589316e-38
220
-6.3108872417680944e-30
230
1
0
CIRCLE
5
119
100
AcDbEntity
8
0
100
AcDbCircle
10
228.16474322731648
20
302.56045831725373
30
0
40
1.4999999999999996
210
5.7786460907589316e-38
220
-6.3108872417680944e-30
230
1
0
CIRCLE
5
120
100
AcDbEntity
8
0
100
AcDbCircle
10
386.79078701914079
20
346.92792497457697
30
0
40
1.5499999999999938
210
5.7786460907589316e-38
220
-6.3108872417680944e-30
230
1
0
CIRCLE
5
121
100
AcDbEntity
8
0
100
AcDbCircle
10
535.59446125938962
20
400.22491185400662
30
-3.5527136788005009e-14
40
1.6000000000000016
210
5.7786460907589316e-38
220
-6.3108872417680944e-30
230
1
0
CIRCLE
5
122
100
AcDbEntity
8
0
100
AcDbCircle
10
306.4266588971297
20
330.27513657269117
30
0
40
1.5499999999999983
210
5.7786460907589316e-38
220
-6.3108872417680944e-30
230
1
0
CIRCLE
5
123
100
AcDbEntity
8
0
100
AcDbCircle
10
534.56051308893245
20
348.27367557246271
30
0
40
1.6000000000000016
210
5.7786460907589316e-38
220
-6.3108872417680944e-30
230
1
0
LWPOLYLINE
5
124
100
AcDbEntity
8
0
100
AcDbPolyline
90
4
70
1
43
0.0
10
472.21941293031927
20
317.36774607144429
10
453.4387104720289
20
408.00090264289793
42
0.99999999999999989
10
446.87808267565083
20
406.6414310847577
10
465.65878513394114
20
316.00827451330395
42
0.99999999999999989
0
CIRCLE
5
125
100
AcDbEntity
8
0
100
AcDbCircle
10
206.78599815578423
20
309.62793729963755
30
0
40
1.5000000000000038
210
5.7786460907589316e-38
220
-6.3108872417680944e-30
230
1
0
CIRCLE
5
126
100
AcDbEntity
8
0
100
AcDbCircle
10
331.99728980483434
20
335.57379799986711
30
0
40
1.5500000000000025
210
5.7786460907589316e-38
220
-6.3108872417680944e-30
230
1
0
CIRCLE
5
127
100
AcDbEntity
8
0
100
AcDbCircle
10
341.01034009665506
20
376.2487141521205
30
0
40
1.5500000000000025
210
5.7786460907589316e-38
220
-6.3108872417680944e-30
230
1
0
CIRCLE
5
128
100
AcDbEntity
8
0
100
AcDbCircle
10
321.82011132424691
20
271.59952282382164
30
0
40
1.5000000000000038
210
5.7786460907589316e-38
220
-6.3108872417680944e-30
230
1
0
CIRCLE
5
129
100
AcDbEntity
8
0
100
AcDbCircle
10
280.42663886649291
20
375.255397525646
30
-3.5527136788005009e-14
40
1.5000000000000004
210
5.7786460907589316e-38
220
-6.3108872417680944e-30
230
1
0
LWPOLYLINE
5
130
100
AcDbEntity
8
0
100
AcDbPolyline
90
8
70
1
43
0.0
10
463.82467237973754
20
415.63770287925047
10
510.69010581907429
20
419.86434712623236
42
-0.99999999999999989
10
529.47080827736431
20
329.23119055477866
10
484.78481665362506
20
314.48685178864503
42
-0.71797584077431331
10
438.64610272722496
20
299.26318093240377
10
290.49887651597243
20
250.38135454457407
42
-0.9999999925494194
10
260.06294720418651
20
397.26108155592163
10
415.43566392489208
20
411.27365225188186
42
-0.71797584077431154
0
ENDSEC
0
SECTION
2
OBJECTS
0
DICTIONARY
5
C
100
AcDbDictionary
3
ACAD_GROUP
350
D
3
ACAD_MLINESTYLE
350
17
0
DICTIONARY
5
D
100
AcDbDictionary
0
DICTIONARY
5
1A
330
C
100
AcDbDictionary
0
DICTIONARY
5
17
100
AcDbDictionary
0
ENDSEC
0
EOF
